# xmcd
#
# Track frame offsets: 
#        150
#        13795
#        24865
#        37303
#        49063
#        58273
#        69245
#        82955
#        96130
#        103960
#        114998
#        128830
#        136948
#        153045
#        166998
#        184970
#        202420
#        209808
#        226708
#        240155
#
# Disc length: 3378 seconds
#
# Revision: 0
# Processed by: cddbd v1.5.2PL0 Copyright (c) Steve Scherf et al.
# Submitted via: ExactAudioCopy v1.0b3
#
DISCID=110d3014
DTITLE=Sunday Skifflers - The Best Of 33 Years
DYEAR=1994
DGENRE=Bluegrass
TTITLE0=Speak To The Sky
TTITLE1=Tight Like That
TTITLE2=Footprints In The Snow
TTITLE3=I'm Not A Fool Anymore
TTITLE4=Does Your Chewing Gum Lose Its Flavour
TTITLE5=Night Train To Memphis
TTITLE6=North To Alaska
TTITLE7=Woman's Love
TTITLE8=World Is Waiting For The Sunrise
TTITLE9=You're The Only Good Thing That Happened To Me
TTITLE10=Roll In My Sweet Baby's Arms
TTITLE11=Big Ball In Monterey
TTITLE12=Good Hearted Woman
TTITLE13=Boney Fingers
TTITLE14=Ontario's Snow
TTITLE15=Out Among The Stars
TTITLE16=Yakety Sax
TTITLE17=Lion In The Winter
TTITLE18=Alphorn Skiffle
TTITLE19=Streamline Train
EXTD=
EXTT0=
EXTT1=
EXTT2=
EXTT3=
EXTT4=
EXTT5=
EXTT6=
EXTT7=
EXTT8=
EXTT9=
EXTT10=
EXTT11=
EXTT12=
EXTT13=
EXTT14=
EXTT15=
EXTT16=
EXTT17=
EXTT18=
EXTT19=
PLAYORDER=
